<svg width="26" height="15" viewBox="0 0 26 15" fill="none" xmlns="http://www.w3.org/2000/svg">
<path d="M1 6.5835C0.447715 6.5835 0 7.03121 0 7.5835C0 8.13578 0.447715 8.5835 1 8.5835V6.5835ZM25.7071 8.2906C26.0976 7.90008 26.0976 7.26691 25.7071 6.87639L19.3431 0.512428C18.9526 0.121904 18.3195 0.121904 17.9289 0.512428C17.5384 0.902953 17.5384 1.53612 17.9289 1.92664L23.5858 7.5835L17.9289 13.2404C17.5384 13.6309 17.5384 14.264 17.9289 14.6546C18.3195 15.0451 18.9526 15.0451 19.3431 14.6546L25.7071 8.2906ZM1 8.5835H25V6.5835H1V8.5835Z" fill="#0032A0"/>
</svg>
