<svg width="68" height="24" viewBox="0 0 68 24" fill="none" xmlns="http://www.w3.org/2000/svg">
<g clip-path="url(#clip0_170_18)">
<path d="M55.8194 0C53.1097 0 50.5936 0.890324 48.542 2.40001C46.4903 0.890324 43.9742 0 41.2645 0C38.5549 0 36.0387 0.890324 33.9871 2.40001C31.9355 0.890324 29.4581 0 26.7097 0C24 0 21.4839 0.890324 19.4323 2.40001C17.4194 0.890324 14.9032 0 12.1548 0C5.45806 0 0 5.38065 0 12C0 18.6194 5.45806 24 12.1548 24C14.8645 24 17.3807 23.1097 19.4323 21.6C21.4839 23.1097 24 24 26.7097 24C29.4194 24 31.9355 23.1097 33.9871 21.6C36 23.1097 38.5161 24 41.2645 24C43.9742 24 46.4903 23.1097 48.542 21.6C50.5549 23.1097 53.071 24 55.8194 24C62.5161 24 67.9742 18.6194 67.9742 12C67.9742 5.38065 62.5161 0 55.8194 0ZM48.542 18.1936C47.071 16.529 46.1807 14.3613 46.1807 12C46.1807 9.63871 47.071 7.47098 48.542 5.80646C50.0129 7.47098 50.9032 9.63871 50.9032 12C50.9032 14.3613 50.0129 16.529 48.542 18.1936ZM33.9871 18.1936C32.5161 16.529 31.6258 14.3613 31.6258 12C31.6258 9.63871 32.5161 7.47098 33.9871 5.80646C35.4581 7.47098 36.3484 9.63871 36.3484 12C36.3484 14.3613 35.4581 16.529 33.9871 18.1936ZM19.4323 18.1936C17.9613 16.529 17.071 14.3613 17.071 12C17.071 9.63871 17.9613 7.47098 19.4323 5.80646C20.9032 7.47098 21.7936 9.63871 21.7936 12C21.8323 14.3613 20.9032 16.529 19.4323 18.1936ZM2.51613 12C2.51613 6.7742 6.85161 2.51613 12.1548 2.51613C14.129 2.51613 15.9871 3.09678 17.5355 4.14194C15.6774 6.23226 14.5548 8.98064 14.5548 12C14.5548 15.0194 15.6774 17.7677 17.5355 19.8581C15.9871 20.8645 14.1677 21.4839 12.1548 21.4839C6.85161 21.4839 2.51613 17.2258 2.51613 12ZM21.329 19.8581C23.1871 17.7677 24.3097 15.0194 24.3097 12C24.3097 8.98064 23.1871 6.23226 21.329 4.14194C22.8774 3.13548 24.6968 2.51613 26.7097 2.51613C28.7226 2.51613 30.5419 3.09678 32.0903 4.14194C30.2323 6.23226 29.071 8.98064 29.071 12C29.071 15.0194 30.1936 17.7677 32.0903 19.8581C30.5419 20.8645 28.7226 21.4839 26.7097 21.4839C24.7355 21.4839 22.8774 20.8645 21.329 19.8581ZM35.8839 19.8581C37.7419 17.7677 38.9032 15.0194 38.9032 12C38.9032 8.98064 37.7807 6.23226 35.8839 4.14194C37.4323 3.13548 39.2516 2.51613 41.2645 2.51613C43.2774 2.51613 45.0968 3.09678 46.6452 4.14194C44.7871 6.23226 43.6258 8.98064 43.6258 12C43.6258 15.0194 44.7484 17.7677 46.6452 19.8581C45.0968 20.8645 43.2774 21.4839 41.2645 21.4839C39.2516 21.4839 37.4323 20.8645 35.8839 19.8581ZM55.8194 21.4839C53.8452 21.4839 51.9871 20.9032 50.4387 19.8581C52.2968 17.7677 53.4581 15.0194 53.4581 12C53.4581 8.98064 52.3355 6.23226 50.4387 4.14194C51.9871 3.13548 53.8065 2.51613 55.8194 2.51613C61.1226 2.51613 65.4581 6.7742 65.4581 12C65.4581 17.2258 61.1226 21.4839 55.8194 21.4839Z" fill="black"/>
</g>
<defs>
<clipPath id="clip0_170_18">
<rect width="67.9742" height="24" fill="white"/>
</clipPath>
</defs>
</svg>
