<svg width="32" height="32" viewBox="0 0 32 32" fill="none" xmlns="http://www.w3.org/2000/svg">
<path d="M25.3334 28.0001H6.66675V29.3335C6.66675 29.6871 6.52627 30.0262 6.27622 30.2763C6.02617 30.5263 5.68704 30.6668 5.33341 30.6668H4.00008C3.64646 30.6668 3.30732 30.5263 3.05727 30.2763C2.80722 30.0262 2.66675 29.6871 2.66675 29.3335V16.0001L5.88941 10.6281C6.1265 10.2335 6.46172 9.90697 6.86243 9.68033C7.26315 9.45369 7.71571 9.33464 8.17608 9.33479H23.8241C24.2844 9.33464 24.737 9.45369 25.1377 9.68033C25.5384 9.90697 25.8737 10.2335 26.1107 10.6281L29.3334 16.0015V29.3348C29.3334 29.6884 29.1929 30.0275 28.9429 30.2776C28.6928 30.5276 28.3537 30.6681 28.0001 30.6681H26.6667C26.3131 30.6681 25.974 30.5276 25.7239 30.2776C25.4739 30.0275 25.3334 29.6884 25.3334 29.3348V28.0001ZM26.6667 18.6668H5.33341V25.3335H26.6667V18.6668ZM5.77608 16.0001H26.2241L23.8241 12.0001H8.17608L5.77608 16.0001ZM7.25341 4.58679L8.66675 3.17212L10.0801 4.58545C10.3598 4.86513 10.5504 5.2215 10.6276 5.60948C10.7048 5.99746 10.6653 6.39962 10.5139 6.76511C10.3625 7.13059 10.1062 7.44299 9.77728 7.66278C9.44837 7.88257 9.06167 7.99988 8.66608 7.99988C8.27049 7.99988 7.88379 7.88257 7.55488 7.66278C7.22597 7.44299 6.96962 7.13059 6.81826 6.76511C6.66691 6.39962 6.62734 5.99746 6.70455 5.60948C6.78177 5.2215 6.97232 4.86513 7.25208 4.58545L7.25341 4.58679ZM14.5867 4.58679L16.0001 3.17212L17.4134 4.58545C17.6932 4.86513 17.8837 5.2215 17.9609 5.60948C18.0382 5.99746 17.9986 6.39962 17.8472 6.76511C17.6959 7.13059 17.4395 7.44299 17.1106 7.66278C16.7817 7.88257 16.395 7.99988 15.9994 7.99988C15.6038 7.99988 15.2171 7.88257 14.8882 7.66278C14.5593 7.44299 14.303 7.13059 14.1516 6.76511C14.0002 6.39962 13.9607 5.99746 14.0379 5.60948C14.1151 5.2215 14.3056 4.86513 14.5854 4.58545L14.5867 4.58679ZM21.9201 4.58679L23.3334 3.17212L24.7467 4.58545C25.0265 4.86513 25.2171 5.2215 25.2943 5.60948C25.3715 5.99746 25.3319 6.39962 25.1806 6.76511C25.0292 7.13059 24.7729 7.44299 24.444 7.66278C24.115 7.88257 23.7283 7.99988 23.3327 7.99988C22.9372 7.99988 22.5505 7.88257 22.2215 7.66278C21.8926 7.44299 21.6363 7.13059 21.4849 6.76511C21.3336 6.39962 21.294 5.99746 21.3712 5.60948C21.4484 5.2215 21.639 4.86513 21.9187 4.58545L21.9201 4.58679ZM8.66675 24.0001C8.13631 24.0001 7.62761 23.7894 7.25253 23.4143C6.87746 23.0393 6.66675 22.5306 6.66675 22.0001C6.66675 21.4697 6.87746 20.961 7.25253 20.5859C7.62761 20.2108 8.13631 20.0001 8.66675 20.0001C9.19718 20.0001 9.70589 20.2108 10.081 20.5859C10.456 20.961 10.6667 21.4697 10.6667 22.0001C10.6667 22.5306 10.456 23.0393 10.081 23.4143C9.70589 23.7894 9.19718 24.0001 8.66675 24.0001ZM23.3334 24.0001C22.803 24.0001 22.2943 23.7894 21.9192 23.4143C21.5441 23.0393 21.3334 22.5306 21.3334 22.0001C21.3334 21.4697 21.5441 20.961 21.9192 20.5859C22.2943 20.2108 22.803 20.0001 23.3334 20.0001C23.8638 20.0001 24.3726 20.2108 24.7476 20.5859C25.1227 20.961 25.3334 21.4697 25.3334 22.0001C25.3334 22.5306 25.1227 23.0393 24.7476 23.4143C24.3726 23.7894 23.8638 24.0001 23.3334 24.0001Z" fill="#0032A0"/>
</svg>
