<svg width="32" height="32" viewBox="0 0 32 32" fill="none" xmlns="http://www.w3.org/2000/svg">
<path d="M8 20.0002V21.3335C8 21.7113 7.872 22.0282 7.616 22.2842C7.36 22.5402 7.04356 22.6677 6.66667 22.6668H5.33333C4.95556 22.6668 4.63911 22.5388 4.384 22.2828C4.12889 22.0268 4.00089 21.7104 4 21.3335V10.6668L6.8 2.66683C6.93333 2.26683 7.17244 1.94461 7.51733 1.70016C7.86222 1.45572 8.24533 1.3335 8.66667 1.3335H23.3333C23.7556 1.3335 24.1391 1.45572 24.484 1.70016C24.8289 1.94461 25.0676 2.26683 25.2 2.66683L28 10.6668V21.3335C28 21.7113 27.8724 22.0282 27.6173 22.2842C27.3622 22.5402 27.0453 22.6677 26.6667 22.6668H25.3333C24.9556 22.6668 24.6391 22.5388 24.384 22.2828C24.1289 22.0268 24.0009 21.7104 24 21.3335V20.0002H8ZM7.73333 8.00016H24.2667L22.8667 4.00016H9.13333L7.73333 8.00016ZM10 16.0002C10.5556 16.0002 11.028 15.8059 11.4173 15.4175C11.8067 15.0291 12.0009 14.5566 12 14.0002C12 13.4446 11.8058 12.9726 11.4173 12.5842C11.0289 12.1957 10.5564 12.0011 10 12.0002C9.44444 12.0002 8.97245 12.1948 8.584 12.5842C8.19556 12.9735 8.00089 13.4455 8 14.0002C8 14.5557 8.19467 15.0282 8.584 15.4175C8.97333 15.8068 9.44533 16.0011 10 16.0002ZM22 16.0002C22.5556 16.0002 23.028 15.8059 23.4173 15.4175C23.8067 15.0291 24.0009 14.5566 24 14.0002C24 13.4446 23.8058 12.9726 23.4173 12.5842C23.0289 12.1957 22.5564 12.0011 22 12.0002C21.4444 12.0002 20.9724 12.1948 20.584 12.5842C20.1956 12.9735 20.0009 13.4455 20 14.0002C20 14.5557 20.1947 15.0282 20.584 15.4175C20.9733 15.8068 21.4453 16.0011 22 16.0002ZM17.3333 30.6668L9.33333 26.6668H14.6667V24.0002L22.6667 28.0002H17.3333V30.6668ZM6.66667 17.3335H25.3333V10.6668H6.66667V17.3335Z" fill="#0032A0"/>
</svg>
