<svg width="32" height="32" viewBox="0 0 32 32" fill="none" xmlns="http://www.w3.org/2000/svg">
<mask id="path-1-outside-1_65_933" maskUnits="userSpaceOnUse" x="4.25" y="2.25" width="23" height="27" fill="black">
<rect fill="white" x="4.25" y="2.25" width="23" height="27"/>
<path d="M22 7.25H10C9.80109 7.25 9.61032 7.32902 9.46967 7.46967C9.32902 7.61032 9.25 7.80109 9.25 8V14C9.25 14.1989 9.32902 14.3897 9.46967 14.5303C9.61032 14.671 9.80109 14.75 10 14.75H22C22.1989 14.75 22.3897 14.671 22.5303 14.5303C22.671 14.3897 22.75 14.1989 22.75 14V8C22.75 7.80109 22.671 7.61032 22.5303 7.46967C22.3897 7.32902 22.1989 7.25 22 7.25ZM21.25 13.25H10.75V8.75H21.25V13.25ZM25 3.25H7C6.53587 3.25 6.09075 3.43437 5.76256 3.76256C5.43437 4.09075 5.25 4.53587 5.25 5V27C5.25 27.4641 5.43437 27.9092 5.76256 28.2374C6.09075 28.5656 6.53587 28.75 7 28.75H25C25.4641 28.75 25.9092 28.5656 26.2374 28.2374C26.5656 27.9092 26.75 27.4641 26.75 27V5C26.75 4.53587 26.5656 4.09075 26.2374 3.76256C25.9092 3.43437 25.4641 3.25 25 3.25ZM25.25 27C25.25 27.0663 25.2237 27.1299 25.1768 27.1768C25.1299 27.2237 25.0663 27.25 25 27.25H7C6.9337 27.25 6.87011 27.2237 6.82322 27.1768C6.77634 27.1299 6.75 27.0663 6.75 27V5C6.75 4.9337 6.77634 4.87011 6.82322 4.82322C6.87011 4.77634 6.9337 4.75 7 4.75H25C25.0663 4.75 25.1299 4.77634 25.1768 4.82322C25.2237 4.87011 25.25 4.9337 25.25 5V27ZM12.25 18.5C12.25 18.7472 12.1767 18.9889 12.0393 19.1945C11.902 19.4 11.7068 19.5602 11.4784 19.6549C11.2499 19.7495 10.9986 19.7742 10.7561 19.726C10.5137 19.6777 10.2909 19.5587 10.1161 19.3839C9.9413 19.2091 9.82225 18.9863 9.77402 18.7439C9.72579 18.5014 9.75054 18.2501 9.84515 18.0216C9.93976 17.7932 10.1 17.598 10.3055 17.4607C10.5111 17.3233 10.7528 17.25 11 17.25C11.3315 17.25 11.6495 17.3817 11.8839 17.6161C12.1183 17.8505 12.25 18.1685 12.25 18.5ZM17.25 18.5C17.25 18.7472 17.1767 18.9889 17.0393 19.1945C16.902 19.4 16.7068 19.5602 16.4784 19.6549C16.2499 19.7495 15.9986 19.7742 15.7561 19.726C15.5137 19.6777 15.2909 19.5587 15.1161 19.3839C14.9413 19.2091 14.8222 18.9863 14.774 18.7439C14.7258 18.5014 14.7505 18.2501 14.8452 18.0216C14.9398 17.7932 15.1 17.598 15.3055 17.4607C15.5111 17.3233 15.7528 17.25 16 17.25C16.3315 17.25 16.6495 17.3817 16.8839 17.6161C17.1183 17.8505 17.25 18.1685 17.25 18.5ZM22.25 18.5C22.25 18.7472 22.1767 18.9889 22.0393 19.1945C21.902 19.4 21.7068 19.5602 21.4784 19.6549C21.2499 19.7495 20.9986 19.7742 20.7561 19.726C20.5137 19.6777 20.2909 19.5587 20.1161 19.3839C19.9413 19.2091 19.8223 18.9863 19.774 18.7439C19.7258 18.5014 19.7505 18.2501 19.8451 18.0216C19.9398 17.7932 20.1 17.598 20.3055 17.4607C20.5111 17.3233 20.7528 17.25 21 17.25C21.3315 17.25 21.6495 17.3817 21.8839 17.6161C22.1183 17.8505 22.25 18.1685 22.25 18.5ZM12.25 23.5C12.25 23.7472 12.1767 23.9889 12.0393 24.1945C11.902 24.4 11.7068 24.5602 11.4784 24.6549C11.2499 24.7495 10.9986 24.7742 10.7561 24.726C10.5137 24.6777 10.2909 24.5587 10.1161 24.3839C9.9413 24.2091 9.82225 23.9863 9.77402 23.7439C9.72579 23.5014 9.75054 23.2501 9.84515 23.0216C9.93976 22.7932 10.1 22.598 10.3055 22.4607C10.5111 22.3233 10.7528 22.25 11 22.25C11.3315 22.25 11.6495 22.3817 11.8839 22.6161C12.1183 22.8505 12.25 23.1685 12.25 23.5ZM17.25 23.5C17.25 23.7472 17.1767 23.9889 17.0393 24.1945C16.902 24.4 16.7068 24.5602 16.4784 24.6549C16.2499 24.7495 15.9986 24.7742 15.7561 24.726C15.5137 24.6777 15.2909 24.5587 15.1161 24.3839C14.9413 24.2091 14.8222 23.9863 14.774 23.7439C14.7258 23.5014 14.7505 23.2501 14.8452 23.0216C14.9398 22.7932 15.1 22.598 15.3055 22.4607C15.5111 22.3233 15.7528 22.25 16 22.25C16.3315 22.25 16.6495 22.3817 16.8839 22.6161C17.1183 22.8505 17.25 23.1685 17.25 23.5ZM22.25 23.5C22.25 23.7472 22.1767 23.9889 22.0393 24.1945C21.902 24.4 21.7068 24.5602 21.4784 24.6549C21.2499 24.7495 20.9986 24.7742 20.7561 24.726C20.5137 24.6777 20.2909 24.5587 20.1161 24.3839C19.9413 24.2091 19.8223 23.9863 19.774 23.7439C19.7258 23.5014 19.7505 23.2501 19.8451 23.0216C19.9398 22.7932 20.1 22.598 20.3055 22.4607C20.5111 22.3233 20.7528 22.25 21 22.25C21.3315 22.25 21.6495 22.3817 21.8839 22.6161C22.1183 22.8505 22.25 23.1685 22.25 23.5Z"/>
</mask>
<path d="M22 7.25H10C9.80109 7.25 9.61032 7.32902 9.46967 7.46967C9.32902 7.61032 9.25 7.80109 9.25 8V14C9.25 14.1989 9.32902 14.3897 9.46967 14.5303C9.61032 14.671 9.80109 14.75 10 14.75H22C22.1989 14.75 22.3897 14.671 22.5303 14.5303C22.671 14.3897 22.75 14.1989 22.75 14V8C22.75 7.80109 22.671 7.61032 22.5303 7.46967C22.3897 7.32902 22.1989 7.25 22 7.25ZM21.25 13.25H10.75V8.75H21.25V13.25ZM25 3.25H7C6.53587 3.25 6.09075 3.43437 5.76256 3.76256C5.43437 4.09075 5.25 4.53587 5.25 5V27C5.25 27.4641 5.43437 27.9092 5.76256 28.2374C6.09075 28.5656 6.53587 28.75 7 28.75H25C25.4641 28.75 25.9092 28.5656 26.2374 28.2374C26.5656 27.9092 26.75 27.4641 26.75 27V5C26.75 4.53587 26.5656 4.09075 26.2374 3.76256C25.9092 3.43437 25.4641 3.25 25 3.25ZM25.25 27C25.25 27.0663 25.2237 27.1299 25.1768 27.1768C25.1299 27.2237 25.0663 27.25 25 27.25H7C6.9337 27.25 6.87011 27.2237 6.82322 27.1768C6.77634 27.1299 6.75 27.0663 6.75 27V5C6.75 4.9337 6.77634 4.87011 6.82322 4.82322C6.87011 4.77634 6.9337 4.75 7 4.75H25C25.0663 4.75 25.1299 4.77634 25.1768 4.82322C25.2237 4.87011 25.25 4.9337 25.25 5V27ZM12.25 18.5C12.25 18.7472 12.1767 18.9889 12.0393 19.1945C11.902 19.4 11.7068 19.5602 11.4784 19.6549C11.2499 19.7495 10.9986 19.7742 10.7561 19.726C10.5137 19.6777 10.2909 19.5587 10.1161 19.3839C9.9413 19.2091 9.82225 18.9863 9.77402 18.7439C9.72579 18.5014 9.75054 18.2501 9.84515 18.0216C9.93976 17.7932 10.1 17.598 10.3055 17.4607C10.5111 17.3233 10.7528 17.25 11 17.25C11.3315 17.25 11.6495 17.3817 11.8839 17.6161C12.1183 17.8505 12.25 18.1685 12.25 18.5ZM17.25 18.5C17.25 18.7472 17.1767 18.9889 17.0393 19.1945C16.902 19.4 16.7068 19.5602 16.4784 19.6549C16.2499 19.7495 15.9986 19.7742 15.7561 19.726C15.5137 19.6777 15.2909 19.5587 15.1161 19.3839C14.9413 19.2091 14.8222 18.9863 14.774 18.7439C14.7258 18.5014 14.7505 18.2501 14.8452 18.0216C14.9398 17.7932 15.1 17.598 15.3055 17.4607C15.5111 17.3233 15.7528 17.25 16 17.25C16.3315 17.25 16.6495 17.3817 16.8839 17.6161C17.1183 17.8505 17.25 18.1685 17.25 18.5ZM22.25 18.5C22.25 18.7472 22.1767 18.9889 22.0393 19.1945C21.902 19.4 21.7068 19.5602 21.4784 19.6549C21.2499 19.7495 20.9986 19.7742 20.7561 19.726C20.5137 19.6777 20.2909 19.5587 20.1161 19.3839C19.9413 19.2091 19.8223 18.9863 19.774 18.7439C19.7258 18.5014 19.7505 18.2501 19.8451 18.0216C19.9398 17.7932 20.1 17.598 20.3055 17.4607C20.5111 17.3233 20.7528 17.25 21 17.25C21.3315 17.25 21.6495 17.3817 21.8839 17.6161C22.1183 17.8505 22.25 18.1685 22.25 18.5ZM12.25 23.5C12.25 23.7472 12.1767 23.9889 12.0393 24.1945C11.902 24.4 11.7068 24.5602 11.4784 24.6549C11.2499 24.7495 10.9986 24.7742 10.7561 24.726C10.5137 24.6777 10.2909 24.5587 10.1161 24.3839C9.9413 24.2091 9.82225 23.9863 9.77402 23.7439C9.72579 23.5014 9.75054 23.2501 9.84515 23.0216C9.93976 22.7932 10.1 22.598 10.3055 22.4607C10.5111 22.3233 10.7528 22.25 11 22.25C11.3315 22.25 11.6495 22.3817 11.8839 22.6161C12.1183 22.8505 12.25 23.1685 12.25 23.5ZM17.25 23.5C17.25 23.7472 17.1767 23.9889 17.0393 24.1945C16.902 24.4 16.7068 24.5602 16.4784 24.6549C16.2499 24.7495 15.9986 24.7742 15.7561 24.726C15.5137 24.6777 15.2909 24.5587 15.1161 24.3839C14.9413 24.2091 14.8222 23.9863 14.774 23.7439C14.7258 23.5014 14.7505 23.2501 14.8452 23.0216C14.9398 22.7932 15.1 22.598 15.3055 22.4607C15.5111 22.3233 15.7528 22.25 16 22.25C16.3315 22.25 16.6495 22.3817 16.8839 22.6161C17.1183 22.8505 17.25 23.1685 17.25 23.5ZM22.25 23.5C22.25 23.7472 22.1767 23.9889 22.0393 24.1945C21.902 24.4 21.7068 24.5602 21.4784 24.6549C21.2499 24.7495 20.9986 24.7742 20.7561 24.726C20.5137 24.6777 20.2909 24.5587 20.1161 24.3839C19.9413 24.2091 19.8223 23.9863 19.774 23.7439C19.7258 23.5014 19.7505 23.2501 19.8451 23.0216C19.9398 22.7932 20.1 22.598 20.3055 22.4607C20.5111 22.3233 20.7528 22.25 21 22.25C21.3315 22.25 21.6495 22.3817 21.8839 22.6161C22.1183 22.8505 22.25 23.1685 22.25 23.5Z" fill="#0032A0"/>
<path d="M22 7.25H10C9.80109 7.25 9.61032 7.32902 9.46967 7.46967C9.32902 7.61032 9.25 7.80109 9.25 8V14C9.25 14.1989 9.32902 14.3897 9.46967 14.5303C9.61032 14.671 9.80109 14.75 10 14.75H22C22.1989 14.75 22.3897 14.671 22.5303 14.5303C22.671 14.3897 22.75 14.1989 22.75 14V8C22.75 7.80109 22.671 7.61032 22.5303 7.46967C22.3897 7.32902 22.1989 7.25 22 7.25ZM21.25 13.25H10.75V8.75H21.25V13.25ZM25 3.25H7C6.53587 3.25 6.09075 3.43437 5.76256 3.76256C5.43437 4.09075 5.25 4.53587 5.25 5V27C5.25 27.4641 5.43437 27.9092 5.76256 28.2374C6.09075 28.5656 6.53587 28.75 7 28.75H25C25.4641 28.75 25.9092 28.5656 26.2374 28.2374C26.5656 27.9092 26.75 27.4641 26.75 27V5C26.75 4.53587 26.5656 4.09075 26.2374 3.76256C25.9092 3.43437 25.4641 3.25 25 3.25ZM25.25 27C25.25 27.0663 25.2237 27.1299 25.1768 27.1768C25.1299 27.2237 25.0663 27.25 25 27.25H7C6.9337 27.25 6.87011 27.2237 6.82322 27.1768C6.77634 27.1299 6.75 27.0663 6.75 27V5C6.75 4.9337 6.77634 4.87011 6.82322 4.82322C6.87011 4.77634 6.9337 4.75 7 4.75H25C25.0663 4.75 25.1299 4.77634 25.1768 4.82322C25.2237 4.87011 25.25 4.9337 25.25 5V27ZM12.25 18.5C12.25 18.7472 12.1767 18.9889 12.0393 19.1945C11.902 19.4 11.7068 19.5602 11.4784 19.6549C11.2499 19.7495 10.9986 19.7742 10.7561 19.726C10.5137 19.6777 10.2909 19.5587 10.1161 19.3839C9.9413 19.2091 9.82225 18.9863 9.77402 18.7439C9.72579 18.5014 9.75054 18.2501 9.84515 18.0216C9.93976 17.7932 10.1 17.598 10.3055 17.4607C10.5111 17.3233 10.7528 17.25 11 17.25C11.3315 17.25 11.6495 17.3817 11.8839 17.6161C12.1183 17.8505 12.25 18.1685 12.25 18.5ZM17.25 18.5C17.25 18.7472 17.1767 18.9889 17.0393 19.1945C16.902 19.4 16.7068 19.5602 16.4784 19.6549C16.2499 19.7495 15.9986 19.7742 15.7561 19.726C15.5137 19.6777 15.2909 19.5587 15.1161 19.3839C14.9413 19.2091 14.8222 18.9863 14.774 18.7439C14.7258 18.5014 14.7505 18.2501 14.8452 18.0216C14.9398 17.7932 15.1 17.598 15.3055 17.4607C15.5111 17.3233 15.7528 17.25 16 17.25C16.3315 17.25 16.6495 17.3817 16.8839 17.6161C17.1183 17.8505 17.25 18.1685 17.25 18.5ZM22.25 18.5C22.25 18.7472 22.1767 18.9889 22.0393 19.1945C21.902 19.4 21.7068 19.5602 21.4784 19.6549C21.2499 19.7495 20.9986 19.7742 20.7561 19.726C20.5137 19.6777 20.2909 19.5587 20.1161 19.3839C19.9413 19.2091 19.8223 18.9863 19.774 18.7439C19.7258 18.5014 19.7505 18.2501 19.8451 18.0216C19.9398 17.7932 20.1 17.598 20.3055 17.4607C20.5111 17.3233 20.7528 17.25 21 17.25C21.3315 17.25 21.6495 17.3817 21.8839 17.6161C22.1183 17.8505 22.25 18.1685 22.25 18.5ZM12.25 23.5C12.25 23.7472 12.1767 23.9889 12.0393 24.1945C11.902 24.4 11.7068 24.5602 11.4784 24.6549C11.2499 24.7495 10.9986 24.7742 10.7561 24.726C10.5137 24.6777 10.2909 24.5587 10.1161 24.3839C9.9413 24.2091 9.82225 23.9863 9.77402 23.7439C9.72579 23.5014 9.75054 23.2501 9.84515 23.0216C9.93976 22.7932 10.1 22.598 10.3055 22.4607C10.5111 22.3233 10.7528 22.25 11 22.25C11.3315 22.25 11.6495 22.3817 11.8839 22.6161C12.1183 22.8505 12.25 23.1685 12.25 23.5ZM17.25 23.5C17.25 23.7472 17.1767 23.9889 17.0393 24.1945C16.902 24.4 16.7068 24.5602 16.4784 24.6549C16.2499 24.7495 15.9986 24.7742 15.7561 24.726C15.5137 24.6777 15.2909 24.5587 15.1161 24.3839C14.9413 24.2091 14.8222 23.9863 14.774 23.7439C14.7258 23.5014 14.7505 23.2501 14.8452 23.0216C14.9398 22.7932 15.1 22.598 15.3055 22.4607C15.5111 22.3233 15.7528 22.25 16 22.25C16.3315 22.25 16.6495 22.3817 16.8839 22.6161C17.1183 22.8505 17.25 23.1685 17.25 23.5ZM22.25 23.5C22.25 23.7472 22.1767 23.9889 22.0393 24.1945C21.902 24.4 21.7068 24.5602 21.4784 24.6549C21.2499 24.7495 20.9986 24.7742 20.7561 24.726C20.5137 24.6777 20.2909 24.5587 20.1161 24.3839C19.9413 24.2091 19.8223 23.9863 19.774 23.7439C19.7258 23.5014 19.7505 23.2501 19.8451 23.0216C19.9398 22.7932 20.1 22.598 20.3055 22.4607C20.5111 22.3233 20.7528 22.25 21 22.25C21.3315 22.25 21.6495 22.3817 21.8839 22.6161C22.1183 22.8505 22.25 23.1685 22.25 23.5Z" stroke="#0032A0" mask="url(#path-1-outside-1_65_933)"/>
</svg>
