<svg width="32" height="32" viewBox="0 0 32 32" fill="none" xmlns="http://www.w3.org/2000/svg">
<path d="M24 14.6668C22.1556 14.6668 20.5836 14.0166 19.284 12.7162C17.9844 11.4157 17.3342 9.84372 17.3333 8.00016C17.3333 6.17794 17.9778 4.61127 19.2667 3.30016C20.5556 1.98905 22.1333 1.3335 24 1.3335C25.8444 1.3335 27.4169 1.98327 28.7173 3.28283C30.0178 4.58238 30.6676 6.15483 30.6667 8.00016C30.6667 9.84461 30.0164 11.4171 28.716 12.7175C27.4156 14.0179 25.8436 14.6677 24 14.6668ZM23.3333 9.3335H24.6667V4.00016H23.3333V9.3335ZM5.33333 26.6668C4.95556 26.6668 4.63911 26.5388 4.384 26.2828C4.12889 26.0268 4.00089 25.7104 4 25.3335V14.6668L6.8 6.66683C6.93333 6.26683 7.17244 5.94461 7.51733 5.70016C7.86222 5.45572 8.24533 5.3335 8.66667 5.3335H15.0667C14.9333 5.75572 14.8333 6.18905 14.7667 6.6335C14.7 7.07794 14.6667 7.5335 14.6667 8.00016H9.13333L7.73333 12.0002H15.5667C15.8111 12.5113 16.0947 12.9891 16.4173 13.4335C16.74 13.8779 17.1009 14.2891 17.5 14.6668H6.66667V21.3335H25.3333V17.2335C25.8 17.1668 26.2556 17.0668 26.7 16.9335C27.1444 16.8002 27.5778 16.6335 28 16.4335V25.3335C28 25.7113 27.872 26.0282 27.616 26.2842C27.36 26.5402 27.0436 26.6677 26.6667 26.6668H25.3333C24.9556 26.6668 24.6391 26.5388 24.384 26.2828C24.1289 26.0268 24.0009 25.7104 24 25.3335V24.0002H8V25.3335C8 25.7113 7.872 26.0282 7.616 26.2842C7.36 26.5402 7.04356 26.6677 6.66667 26.6668H5.33333ZM24 12.0002C24.1778 12.0002 24.3333 11.9335 24.4667 11.8002C24.6 11.6668 24.6667 11.5113 24.6667 11.3335C24.6667 11.1557 24.6 11.0002 24.4667 10.8668C24.3333 10.7335 24.1778 10.6668 24 10.6668C23.8222 10.6668 23.6667 10.7335 23.5333 10.8668C23.4 11.0002 23.3333 11.1557 23.3333 11.3335C23.3333 11.5113 23.4 11.6668 23.5333 11.8002C23.6667 11.9335 23.8222 12.0002 24 12.0002ZM10 20.0002C10.5556 20.0002 11.028 19.8059 11.4173 19.4175C11.8067 19.0291 12.0009 18.5566 12 18.0002C12 17.4446 11.8058 16.9726 11.4173 16.5842C11.0289 16.1957 10.5564 16.0011 10 16.0002C9.44444 16.0002 8.97244 16.1948 8.584 16.5842C8.19556 16.9735 8.00089 17.4455 8 18.0002C8 18.5557 8.19467 19.0282 8.584 19.4175C8.97333 19.8068 9.44533 20.0011 10 20.0002ZM22 20.0002C22.5556 20.0002 23.028 19.8059 23.4173 19.4175C23.8067 19.0291 24.0009 18.5566 24 18.0002C24 17.8891 23.9947 17.7779 23.984 17.6668C23.9733 17.5557 23.9453 17.4446 23.9 17.3335C23.3 17.3335 22.7169 17.2779 22.1507 17.1668C21.5844 17.0557 21.0453 16.8891 20.5333 16.6668C20.3556 16.8446 20.2222 17.0504 20.1333 17.2842C20.0444 17.5179 20 17.7566 20 18.0002C20 18.5557 20.1947 19.0282 20.584 19.4175C20.9733 19.8068 21.4453 20.0011 22 20.0002Z" fill="#0032A0"/>
</svg>
