<svg width="32" height="32" viewBox="0 0 32 32" fill="none" xmlns="http://www.w3.org/2000/svg">
<path d="M8.57509 26.3888C8.57509 27.8317 7.44555 29.0003 6.05026 29.0003C4.6555 29.0003 3.5249 27.8317 3.5249 26.3888C3.5249 24.9465 4.6555 23.7773 6.05026 23.7773C7.44502 23.7773 8.57562 24.946 8.57562 26.3888H8.57509ZM27.5132 26.3888C27.5132 27.8317 26.3836 29.0003 24.9883 29.0003C23.5936 29.0003 22.463 27.8317 22.463 26.3888C22.463 24.9465 23.5936 23.7773 24.9883 23.7773C26.3831 23.7773 27.5137 24.946 27.5137 26.3888H27.5132Z" stroke="white" stroke-width="1.90596" stroke-linecap="round" stroke-linejoin="round"/>
<path d="M27.5131 26.3886C28.8286 26.3886 30.0384 25.4096 30.0384 23.7771C30.0384 22.1446 29.1445 19.8597 26.8817 19.8597H25.8145C25.2764 19.8589 24.7554 19.6701 24.3416 19.3261L19.3675 15.2084C18.9238 14.84 18.3656 14.6378 17.7889 14.6367H8.66377C7.82005 14.6367 7.03127 15.0726 6.56265 15.8001L5.48806 17.4674C5.05008 18.1463 4.31414 18.5537 3.52483 18.5537C2.13007 18.5537 1 19.7228 1 21.1657V23.7771C1 25.22 2.13007 26.3886 3.52536 26.3886M8.57502 26.3886H22.4629" stroke="white" stroke-width="1.90596" stroke-linecap="round" stroke-linejoin="round"/>
<path d="M14.8878 17.248V19.8595H21.2006M8.57542 17.248L7.31274 19.8595H12.3629M16.1504 22.471H17.4131" stroke="white" stroke-width="1.90596" stroke-linecap="round" stroke-linejoin="round"/>
<path d="M28.0014 5.12699C28.9859 5.65424 29.7208 6.5208 30.0198 7.54204C29.8557 7.50715 29.688 7.48951 29.5195 7.48967C29.5192 7.48967 29.519 7.48967 29.5188 7.48967L29.5191 7.72791C29.2696 7.7275 29.0226 7.77058 28.789 7.85458L28.0014 5.12699ZM28.0014 5.12699C28.4036 5.89692 28.6372 6.80608 28.7564 7.61371L28.0014 5.12699ZM27.0382 7.48967C27.2105 7.48968 27.3808 7.50788 27.5459 7.54341C27.4233 6.83953 27.2262 6.21585 26.985 5.72269C26.7992 5.34291 26.595 5.05592 26.3904 4.86491V7.57805C26.6007 7.51921 26.8187 7.48932 27.0382 7.48967ZM27.0382 7.48967C27.0383 7.48967 27.0384 7.48967 27.0385 7.48967L27.0381 7.72791V7.48967C27.0382 7.48967 27.0382 7.48967 27.0382 7.48967ZM22.0767 7.48967C22.3392 7.48967 22.5968 7.53243 22.839 7.61361C22.9581 6.8081 23.1911 5.89838 23.5942 5.12708C22.6098 5.65433 21.875 6.52086 21.576 7.54206C21.7402 7.50713 21.908 7.48949 22.0767 7.48967ZM22.0767 7.48967C22.0768 7.48967 22.0769 7.48967 22.077 7.48967L22.0767 7.72791V7.48967ZM25.2054 3.48406C22.6284 3.73515 20.5603 5.61287 20.2772 8.00583H20.2434V8.24408V9.21882V9.45707H20.4817H21.1907H21.4289V9.21882V8.81614C21.6113 8.68845 21.838 8.61599 22.0767 8.61599L22.078 8.61598C22.3099 8.61473 22.5355 8.68543 22.7244 8.81698V9.21882V9.45707H22.9627H23.6711H23.9094V9.21882V8.81616C24.0918 8.68849 24.3189 8.61599 24.5577 8.61599L24.5589 8.61598C24.7908 8.61473 25.0165 8.68543 25.2054 8.81698V12.7945C25.2054 13.0024 25.0141 13.2061 24.7346 13.2061C24.4553 13.2061 24.2639 13.002 24.2639 12.7945V12.1446V11.9064H24.0256H23.3172H23.0789V12.1446V12.795C23.0789 13.662 23.841 14.3329 24.7346 14.3329C25.6284 14.3329 26.3904 13.6619 26.3904 12.7945V8.81616C26.5728 8.68847 26.7998 8.61599 27.0381 8.61599L27.0394 8.61598C27.2713 8.61473 27.497 8.68543 27.6859 8.81698V9.21882V9.45707H27.9241H28.6331H28.8713V9.21882V8.81616C29.0538 8.68847 29.2808 8.61599 29.5191 8.61599L29.5204 8.61598C29.7523 8.61466 29.9779 8.68521 30.1668 8.81657V9.21935V9.4576H30.4051H31.1141H31.3523V9.21935V8.44695V8.34833L31.3471 8.34312C31.2272 5.78519 29.0817 3.74658 26.3904 3.48408V3V2.76176H26.1521H25.4436H25.2054V3V3.48406ZM25.2054 4.8606V7.57861C24.9972 7.5205 24.7792 7.4902 24.5577 7.4902C24.3855 7.4902 24.2155 7.50836 24.0505 7.54379C24.1381 7.05574 24.2837 6.49029 24.4939 5.98097C24.6902 5.50542 24.9295 5.11095 25.2054 4.8606Z" fill="white" stroke="white" stroke-width="0.476489"/>
</svg>
