<svg width="32" height="32" viewBox="0 0 32 32" fill="none" xmlns="http://www.w3.org/2000/svg">
<path d="M30.5 14C30.1022 14 29.7206 14.158 29.4393 14.4393C29.158 14.7206 29 15.1022 29 15.5V17.5H27V16.5C27 15.837 26.7366 15.2011 26.2678 14.7322C25.7989 14.2634 25.163 14 24.5 14H23.125L18.8538 9.7325C18.6222 9.49956 18.3468 9.31487 18.0434 9.18913C17.74 9.0634 17.4147 8.99911 17.0863 9H15.5V7H17.5C17.8978 7 18.2794 6.84196 18.5607 6.56066C18.842 6.27936 19 5.89782 19 5.5C19 5.10218 18.842 4.72064 18.5607 4.43934C18.2794 4.15804 17.8978 4 17.5 4H10.5C10.1022 4 9.72064 4.15804 9.43934 4.43934C9.15804 4.72064 9 5.10218 9 5.5C9 5.89782 9.15804 6.27936 9.43934 6.56066C9.72064 6.84196 10.1022 7 10.5 7H12.5V9H7.5C6.83696 9 6.20107 9.26339 5.73223 9.73223C5.26339 10.2011 5 10.837 5 11.5V17.5H3V15.5C3 15.1022 2.84196 14.7206 2.56066 14.4393C2.27936 14.158 1.89782 14 1.5 14C1.10218 14 0.720644 14.158 0.43934 14.4393C0.158035 14.7206 0 15.1022 0 15.5L0 22.5C0 22.8978 0.158035 23.2794 0.43934 23.5607C0.720644 23.842 1.10218 24 1.5 24C1.89782 24 2.27936 23.842 2.56066 23.5607C2.84196 23.2794 3 22.8978 3 22.5V20.5H5V22.0863C4.99911 22.4147 5.0634 22.74 5.18913 23.0434C5.31487 23.3468 5.49956 23.6222 5.7325 23.8538L10.1462 28.2675C10.3778 28.5004 10.6532 28.6851 10.9566 28.8109C11.26 28.9366 11.5853 29.0009 11.9137 29H17.0863C17.4147 29.0009 17.74 28.9366 18.0434 28.8109C18.3468 28.6851 18.6222 28.5004 18.8538 28.2675L23.125 24H24.5C24.8283 24 25.1534 23.9353 25.4567 23.8097C25.76 23.6841 26.0356 23.4999 26.2678 23.2678C26.4999 23.0356 26.6841 22.76 26.8097 22.4567C26.9353 22.1534 27 21.8283 27 21.5V20.5H29V22.5C29 22.8978 29.158 23.2794 29.4393 23.5607C29.7206 23.842 30.1022 24 30.5 24C30.8978 24 31.2794 23.842 31.5607 23.5607C31.842 23.2794 32 22.8978 32 22.5V15.5C32 15.1022 31.842 14.7206 31.5607 14.4393C31.2794 14.158 30.8978 14 30.5 14ZM24 21H22.9137C22.5853 20.9991 22.26 21.0634 21.9566 21.1891C21.6532 21.3149 21.3778 21.4996 21.1462 21.7325L16.875 26H12.125L8 21.875V12H16.875L21.1425 16.2675C21.3745 16.5009 21.6505 16.6858 21.9546 16.8116C22.2587 16.9373 22.5847 17.0014 22.9137 17H24V21Z" fill="#0032A0"/>
</svg>
