<svg width="32" height="32" viewBox="0 0 32 32" fill="none" xmlns="http://www.w3.org/2000/svg">
<g clip-path="url(#clip0_65_708)">
<path fill-rule="evenodd" clip-rule="evenodd" d="M19.4587 3.86271C18.4937 3.04032 17.2672 2.58862 15.9993 2.58862C14.7314 2.58862 13.505 3.04032 12.54 3.86271L12.0387 4.28938C11.6117 4.65359 11.0807 4.87382 10.5213 4.91871L9.864 4.97205C8.59996 5.07264 7.41312 5.62031 6.51636 6.51682C5.6196 7.41334 5.0716 8.60003 4.97067 9.86405L4.91867 10.5214C4.87416 11.0806 4.6544 11.6116 4.29067 12.0387L3.86267 12.54C3.03993 13.5051 2.58801 14.7318 2.58801 16C2.58801 17.2682 3.03993 18.4949 3.86267 19.46L4.28934 19.9614C4.65355 20.3883 4.87378 20.9193 4.91867 21.4787L4.972 22.136C5.07259 23.4001 5.62027 24.5869 6.51678 25.4837C7.4133 26.3805 8.59999 26.9284 9.864 27.0294L10.5213 27.0814C11.0806 27.1259 11.6115 27.3456 12.0387 27.7094L12.54 28.136C13.5051 28.9588 14.7318 29.4107 16 29.4107C17.2682 29.4107 18.4949 28.9588 19.46 28.136L19.9613 27.7094C20.3885 27.3456 20.9194 27.1259 21.4787 27.0814L22.136 27.028C23.4 26.9275 24.5869 26.3798 25.4837 25.4833C26.3804 24.5868 26.9284 23.4001 27.0293 22.136L27.08 21.4787C27.1249 20.9193 27.3451 20.3883 27.7093 19.9614L28.136 19.4587C28.9584 18.4937 29.4101 17.2673 29.4101 15.9994C29.4101 14.7315 28.9584 13.5051 28.136 12.54L27.7093 12.0387C27.3451 11.6118 27.1249 11.0808 27.08 10.5214L27.028 9.86405C26.9274 8.60001 26.3797 7.41316 25.4832 6.5164C24.5867 5.61964 23.4 5.07165 22.136 4.97071L21.4787 4.91871C20.9194 4.8742 20.3885 4.65444 19.9613 4.29071L19.4587 3.86271ZM14.2707 5.89338C14.7531 5.48236 15.3662 5.25662 16 5.25662C16.6338 5.25662 17.2469 5.48236 17.7293 5.89338L18.232 6.32138C19.0861 7.04932 20.148 7.48931 21.2667 7.57871L21.924 7.63205C22.5557 7.68262 23.1487 7.9565 23.5968 8.40459C24.0449 8.85268 24.3188 9.4457 24.3693 10.0774L24.4227 10.7347C24.5121 11.8534 24.9521 12.9153 25.68 13.7694L26.1067 14.272C26.5177 14.7545 26.7434 15.3676 26.7434 16.0014C26.7434 16.6352 26.5177 17.2483 26.1067 17.7307L25.68 18.2334C24.9521 19.0875 24.5121 20.1494 24.4227 21.268L24.3693 21.9254C24.3188 22.5571 24.0449 23.1501 23.5968 23.5982C23.1487 24.0463 22.5557 24.3201 21.924 24.3707L21.2667 24.424C20.148 24.5135 19.0861 24.9534 18.232 25.6814L17.7293 26.108C17.2469 26.5191 16.6338 26.7448 16 26.7448C15.3662 26.7448 14.7531 26.5191 14.2707 26.108L13.768 25.6814C12.9139 24.9534 11.852 24.5135 10.7333 24.424L10.076 24.3707C9.44409 24.3204 8.85075 24.0467 8.40238 23.5986C7.95402 23.1505 7.67996 22.5573 7.62934 21.9254L7.576 21.268C7.48698 20.1496 7.04746 19.0876 6.32 18.2334L5.89334 17.7307C5.48232 17.2483 5.25658 16.6352 5.25658 16.0014C5.25658 15.3676 5.48232 14.7545 5.89334 14.272L6.32 13.7694C7.04795 12.9153 7.48793 11.8534 7.57734 10.7347L7.63067 10.0774C7.68094 9.44547 7.95469 8.85213 8.40281 8.40376C8.85093 7.9554 9.44412 7.68133 10.076 7.63071L10.7333 7.57871C11.852 7.48931 12.9139 7.04932 13.768 6.32138L14.2707 5.89338ZM20.9427 12.944C21.07 12.8211 21.1716 12.6739 21.2415 12.5113C21.3114 12.3486 21.3481 12.1736 21.3497 11.9966C21.3512 11.8195 21.3175 11.644 21.2504 11.4801C21.1834 11.3162 21.0844 11.1674 20.9592 11.0422C20.834 10.917 20.6851 10.818 20.5213 10.751C20.3574 10.6839 20.1818 10.6502 20.0048 10.6517C19.8278 10.6533 19.6528 10.69 19.4901 10.7599C19.3275 10.8298 19.1803 10.9314 19.0573 11.0587L11.0573 19.0587C10.93 19.1817 10.8284 19.3288 10.7585 19.4915C10.6887 19.6542 10.6519 19.8291 10.6503 20.0062C10.6488 20.1832 10.6825 20.3588 10.7496 20.5227C10.8166 20.6865 10.9156 20.8354 11.0408 20.9606C11.166 21.0858 11.3149 21.1848 11.4787 21.2518C11.6426 21.3188 11.8182 21.3526 11.9952 21.351C12.1722 21.3495 12.3472 21.3127 12.5099 21.2428C12.6725 21.173 12.8197 21.0714 12.9427 20.944L20.9427 12.944ZM14.6667 12.6667C14.6667 13.1971 14.456 13.7059 14.0809 14.0809C13.7058 14.456 13.1971 14.6667 12.6667 14.6667C12.1362 14.6667 11.6275 14.456 11.2525 14.0809C10.8774 13.7059 10.6667 13.1971 10.6667 12.6667C10.6667 12.1363 10.8774 11.6276 11.2525 11.2525C11.6275 10.8774 12.1362 10.6667 12.6667 10.6667C13.1971 10.6667 13.7058 10.8774 14.0809 11.2525C14.456 11.6276 14.6667 12.1363 14.6667 12.6667ZM19.3333 21.3334C19.8638 21.3334 20.3725 21.1227 20.7476 20.7476C21.1226 20.3725 21.3333 19.8638 21.3333 19.3334C21.3333 18.8029 21.1226 18.2942 20.7476 17.9192C20.3725 17.5441 19.8638 17.3334 19.3333 17.3334C18.8029 17.3334 18.2942 17.5441 17.9191 17.9192C17.5441 18.2942 17.3333 18.8029 17.3333 19.3334C17.3333 19.8638 17.5441 20.3725 17.9191 20.7476C18.2942 21.1227 18.8029 21.3334 19.3333 21.3334Z" fill="#0032A0"/>
</g>
<defs>
<clipPath id="clip0_65_708">
<rect width="32" height="32" fill="white"/>
</clipPath>
</defs>
</svg>
