<svg width="32" height="32" viewBox="0 0 32 32" fill="none" xmlns="http://www.w3.org/2000/svg">
<path d="M16.1541 3.90096L13.6621 6.39296L15.4301 8.16096C15.6494 8.38028 15.7953 8.6622 15.8478 8.9679C15.9003 9.2736 15.8567 9.58806 15.7231 9.86796L17.0801 11.226L19.0191 9.27396C18.8152 8.27666 18.8654 7.2441 19.1651 6.27129C19.4648 5.29848 20.0043 4.41666 20.7341 3.70696L20.7371 3.70396C21.4731 2.99269 22.3772 2.47936 23.3652 2.21182C24.3531 1.94429 25.3927 1.93126 26.3871 2.17396C27.6011 2.46996 28.0041 3.97396 27.1371 4.84196L24.8801 7.09996L25.9061 8.12596L28.1601 5.87196C29.0501 4.96396 30.5441 5.43696 30.8321 6.61696L30.8331 6.61996C31.0756 7.61402 31.0626 8.65332 30.7952 9.64098C30.5277 10.6286 30.0146 11.5325 29.3036 12.2684C28.5926 13.0042 27.7069 13.5481 26.729 13.8493C25.7511 14.1505 24.7129 14.1993 23.7111 13.991L21.7861 15.931L28.9461 23.091C29.3243 23.4609 29.6254 23.9022 29.8319 24.3892C30.0384 24.8763 30.1462 25.3995 30.1492 25.9286C30.1521 26.4576 30.05 26.982 29.8489 27.4713C29.6477 27.9607 29.3515 28.4052 28.9774 28.7793C28.6033 29.1534 28.1586 29.4495 27.6693 29.6505C27.1799 29.8516 26.6555 29.9536 26.1265 29.9506C25.5974 29.9475 25.0742 29.8396 24.5872 29.633C24.1001 29.4264 23.6589 29.1253 23.2891 28.747L16.1491 21.607L14.7741 22.991C14.9667 23.9809 14.9098 25.0032 14.6082 25.9656C14.3067 26.9279 13.7702 27.8 13.0471 28.503L13.0441 28.506C12.3079 29.2174 11.4037 29.7308 10.4155 29.9984C9.42736 30.2659 8.38756 30.2788 7.39306 30.036C6.18006 29.739 5.77706 28.234 6.64306 27.368L8.90206 25.11L7.87606 24.084L5.62306 26.337C4.73306 27.246 3.23806 26.773 2.95006 25.592L2.94906 25.589C2.59374 24.1326 2.79072 22.5963 3.50195 21.2767C4.21319 19.9571 5.38822 18.9478 6.80006 18.444C6.76656 18.4167 6.73451 18.3876 6.70406 18.357L0.366063 12.02C0.131816 11.7854 0.000244141 11.4675 0.000244141 11.136C0.000244141 10.8045 0.131816 10.4865 0.366063 10.252L1.15406 9.46396C1.48031 9.13773 1.8774 8.89115 2.31447 8.74338C2.75153 8.59561 3.21679 8.55064 3.67406 8.61196C3.70261 8.57764 3.73229 8.54429 3.76306 8.51196L10.8361 1.43896C10.9943 1.28094 11.186 1.16032 11.3969 1.08592C11.6078 1.01152 11.8327 0.985223 12.0551 1.00896L15.2551 1.34696C15.5373 1.37616 15.8056 1.48485 16.0285 1.66039C16.2515 1.83593 16.4201 2.07113 16.5148 2.33867C16.6095 2.60621 16.6263 2.89511 16.5633 3.17183C16.5003 3.44855 16.3602 3.70173 16.1591 3.90196L16.1541 3.90096ZM5.53006 9.57496L9.42406 13.463L13.6661 9.21996L12.0661 7.61996C11.8522 7.41388 11.6965 7.15503 11.6147 6.86954C11.5329 6.58405 11.5278 6.28203 11.6001 5.99396C11.7501 5.38796 12.1661 4.99396 12.9101 4.28996C13.2161 3.99996 13.5781 3.65596 14.0001 3.22396L12.0821 3.02396L5.53006 9.57496ZM8.73506 18.093C9.20106 18.085 9.66806 18.131 10.1251 18.23L11.4431 16.903L10.1331 15.593C10.0983 16.3373 9.78653 17.0417 9.25906 17.568L8.73506 18.093ZM12.8531 15.483L15.6711 12.645L14.3691 11.343L11.5411 14.171L12.8531 15.483ZM17.5571 20.187L24.7021 27.332C25.0793 27.6963 25.5845 27.8979 26.1089 27.8933C26.6333 27.8888 27.1349 27.6784 27.5057 27.3076C27.8765 26.9368 28.0869 26.4352 28.0914 25.9108C28.096 25.3864 27.8944 24.8812 27.5301 24.504L20.3751 17.35L17.5571 20.187ZM2.56906 10.879L2.31106 11.137L7.58706 16.413L7.84506 16.155C8.03253 15.9674 8.13785 15.7131 8.13785 15.448C8.13785 15.1828 8.03253 14.9285 7.84506 14.741L3.98306 10.879C3.79554 10.6915 3.54123 10.5862 3.27606 10.5862C3.0109 10.5862 2.75659 10.6915 2.56906 10.879ZM22.1251 5.14496C21.5864 5.6709 21.2038 6.33571 21.0197 7.06572C20.8356 7.79574 20.8572 8.56246 21.0821 9.28096L21.2611 9.85596L10.6991 20.49L10.1121 20.296C9.39767 20.0599 8.63171 20.0271 7.89975 20.2012C7.16779 20.3753 6.49864 20.7495 5.96706 21.282C5.56593 21.6818 5.25318 22.1614 5.04906 22.6897C4.84493 23.218 4.75397 23.7833 4.78206 24.349L6.75306 22.378C7.37306 21.758 8.37706 21.758 8.99706 22.378L10.6071 23.988C11.2271 24.608 11.2271 25.611 10.6071 26.232L8.63406 28.205C9.18875 28.2311 9.74293 28.1435 10.2625 27.9474C10.782 27.7514 11.2559 27.4511 11.6551 27.065C12.1885 26.5443 12.569 25.8874 12.7552 25.1655C12.9414 24.4437 12.9261 23.6847 12.7111 22.971L12.5411 22.401L23.1271 11.741L23.7091 11.926C24.4188 12.1524 25.1772 12.179 25.9011 12.003C26.625 11.8269 27.2865 11.455 27.8131 10.928C28.2142 10.5281 28.5269 10.0485 28.7311 9.52023C28.9352 8.99192 29.0262 8.42664 28.9981 7.86096L27.0281 9.83096C26.8808 9.97854 26.7058 10.0956 26.5132 10.1755C26.3206 10.2554 26.1141 10.2965 25.9056 10.2965C25.697 10.2965 25.4906 10.2554 25.298 10.1755C25.1053 10.0956 24.9304 9.97854 24.7831 9.83096L23.1731 8.22096C23.0257 8.07375 22.9087 7.89893 22.8289 7.7065C22.7492 7.51406 22.7081 7.30778 22.7081 7.09946C22.7081 6.89114 22.7492 6.68486 22.8289 6.49243C22.9087 6.29999 23.0257 6.12517 23.1731 5.97796L25.1461 4.00496C24.5914 3.97865 24.0373 4.06613 23.5178 4.26201C22.9982 4.45789 22.5243 4.75904 22.1251 5.14496Z" fill="#0032A0"/>
</svg>
