<svg width="32" height="32" viewBox="0 0 32 32" fill="none" xmlns="http://www.w3.org/2000/svg">
<g clip-path="url(#clip0_65_912)">
<path d="M9.32143 25.9637C9.32143 27.4345 8.17005 28.6257 6.74778 28.6257C5.32605 28.6257 4.17358 27.4345 4.17358 25.9637C4.17358 24.4935 5.32605 23.3018 6.74778 23.3018C8.16951 23.3018 9.32197 24.493 9.32197 25.9637H9.32143ZM28.6257 25.9637C28.6257 27.4345 27.4743 28.6257 26.0521 28.6257C24.6303 28.6257 23.4779 27.4345 23.4779 25.9637C23.4779 24.4935 24.6303 23.3018 26.0521 23.3018C27.4738 23.3018 28.6263 24.493 28.6263 25.9637H28.6257Z" stroke="#0032A0" stroke-width="2" stroke-linecap="round" stroke-linejoin="round"/>
<path d="M28.6258 25.9635C29.9667 25.9635 31.2 24.9656 31.2 23.3016C31.2 21.6375 30.2888 19.3083 27.9822 19.3083H26.8944C26.3458 19.3075 25.8148 19.1151 25.393 18.7644L20.3227 14.5671C19.8704 14.1915 19.3014 13.9855 18.7135 13.9844H9.41196C8.55192 13.9844 7.74788 14.4287 7.2702 15.1702L6.17483 16.8698C5.72838 17.5619 4.9782 17.9771 4.17363 17.9771C2.7519 17.9771 1.59998 19.1688 1.59998 20.6396V23.3016C1.59998 24.7723 2.7519 25.9635 4.17417 25.9635M9.32148 25.9635H23.4779" stroke="#0032A0" stroke-width="2" stroke-linecap="round" stroke-linejoin="round"/>
<path d="M15.7564 16.6465V19.3085H22.1914M9.32201 16.6465L8.03491 19.3085H13.1828M17.0435 21.9704H18.3306" stroke="#0032A0" stroke-width="2" stroke-linecap="round" stroke-linejoin="round"/>
<path d="M29.1999 8.02677C29.1999 7.08054 28.824 6.17306 28.1549 5.50397C27.4858 4.83488 26.5784 4.45898 25.6321 4.45898C24.6859 4.45898 23.7784 4.83488 23.1093 5.50397C22.4402 6.17306 22.0643 7.08054 22.0643 8.02677C22.0643 8.97301 22.4402 9.88049 23.1093 10.5496C23.7784 11.2187 24.6859 11.5946 25.6321 11.5946C26.5784 11.5946 27.4858 11.2187 28.1549 10.5496C28.824 9.88049 29.1999 8.97301 29.1999 8.02677Z" stroke="#0032A0" stroke-width="2" stroke-linecap="round" stroke-linejoin="round"/>
<path d="M25.275 4.2708V3.2002H25.9885V4.2708M24.9185 3.2002H26.3456M25.632 5.76093V8.25811L26.7021 9.32872" stroke="#0032A0" stroke-width="2" stroke-linecap="round" stroke-linejoin="round"/>
</g>
<defs>
<clipPath id="clip0_65_912">
<rect width="32" height="32" fill="white"/>
</clipPath>
</defs>
</svg>
