<svg width="32" height="32" viewBox="0 0 32 32" fill="none" xmlns="http://www.w3.org/2000/svg">
<path d="M22.6667 28L19 24L20.5467 22.4533L22.6667 24.5733L27.4533 19.7867L29 21.6667M17.0667 28H6.66667C5.18667 28 4 26.8133 4 25.3333V6.66667C4 5.18667 5.18667 4 6.66667 4H25.3333C26.8133 4 28 5.18667 28 6.66667V17.0667C27.1867 16.6 26.2933 16.2667 25.3333 16.1067V6.66667H6.66667V25.3333H16.1067C16.2667 26.2933 16.6 27.1867 17.0667 28ZM16 22.6667H9.33333V20H16M19.5733 17.3333H9.33333V14.6667H22.6667V16.1067C21.5333 16.2933 20.4933 16.72 19.5733 17.3333ZM22.6667 12H9.33333V9.33333H22.6667" fill="#0032A0"/>
</svg>
