<svg width="32" height="32" viewBox="0 0 32 32" fill="none" xmlns="http://www.w3.org/2000/svg">
<path d="M8 14H14V16H8V14ZM8 6H20V8H8V6ZM8 10H20V12H8V10ZM8 24H14V26H8V24ZM30 24V22H27.899C27.77 21.374 27.5215 20.7788 27.167 20.247L28.657 18.757L27.243 17.343L25.753 18.833C25.2212 18.4785 24.626 18.23 24 18.101V16H22V18.101C21.374 18.23 20.7788 18.4785 20.247 18.833L18.757 17.343L17.343 18.757L18.833 20.247C18.4785 20.7788 18.23 21.374 18.101 22H16V24H18.101C18.23 24.626 18.4785 25.2212 18.833 25.753L17.343 27.243L18.757 28.657L20.247 27.167C20.7788 27.5215 21.374 27.77 22 27.899V30H24V27.899C24.626 27.77 25.2212 27.5215 25.753 27.167L27.243 28.657L28.657 27.243L27.167 25.753C27.5215 25.2212 27.77 24.626 27.899 24H30ZM23 26C22.4067 26 21.8266 25.8241 21.3333 25.4944C20.8399 25.1648 20.4554 24.6962 20.2284 24.1481C20.0013 23.5999 19.9419 22.9967 20.0576 22.4147C20.1734 21.8328 20.4591 21.2982 20.8787 20.8787C21.2982 20.4591 21.8328 20.1734 22.4147 20.0576C22.9967 19.9419 23.5999 20.0013 24.1481 20.2284C24.6962 20.4554 25.1648 20.8399 25.4944 21.3333C25.8241 21.8266 26 22.4067 26 23C25.9992 23.7954 25.6829 24.558 25.1204 25.1204C24.558 25.6829 23.7954 25.9992 23 26Z" fill="#0032A0"/>
<path d="M14 30.25H14.25V30V28V27.75H14H6.25V4.25H21.75V14V14.25H22H24H24.25V14V4V3.99975C24.2494 3.40326 24.0122 2.83138 23.5904 2.40959C23.1686 1.98781 22.5967 1.7506 22.0002 1.75H22L6 1.75L5.99975 1.75C5.40326 1.7506 4.83138 1.98781 4.40959 2.40959C3.98781 2.83138 3.7506 3.40326 3.75 3.99975V4L3.75 28L3.75 28.0002C3.7506 28.5967 3.98781 29.1686 4.40959 29.5904C4.83138 30.0122 5.40326 30.2494 5.99975 30.25H6H14Z" fill="#0032A0" stroke="#0032A0" stroke-width="0.5"/>
</svg>
