<svg width="32" height="32" viewBox="0 0 32 32" fill="none" xmlns="http://www.w3.org/2000/svg">
<path d="M25.2267 6.68004C24.96 5.89337 24.2133 5.33337 23.3333 5.33337H8.66667C7.78667 5.33337 7.05333 5.89337 6.77333 6.68004L4 14.6667V25.3334C4 26.0667 4.6 26.6667 5.33333 26.6667H6.66667C7.4 26.6667 8 26.0667 8 25.3334V24H24V25.3334C24 26.0667 24.6 26.6667 25.3333 26.6667H26.6667C27.4 26.6667 28 26.0667 28 25.3334V14.6667L25.2267 6.68004ZM9.13333 8.00004H22.8533L24.24 12H7.74667L9.13333 8.00004ZM25.3333 21.3334H6.66667V15.12L6.82667 14.6667H25.1867L25.3333 15.12V21.3334Z" fill="#0032A0"/>
<path d="M10 20C11.1046 20 12 19.1046 12 18C12 16.8954 11.1046 16 10 16C8.89543 16 8 16.8954 8 18C8 19.1046 8.89543 20 10 20Z" fill="#0032A0"/>
<path d="M22 20C23.1046 20 24 19.1046 24 18C24 16.8954 23.1046 16 22 16C20.8954 16 20 16.8954 20 18C20 19.1046 20.8954 20 22 20Z" fill="#0032A0"/>
</svg>
