<svg width="64" height="16" viewBox="0 0 64 16" fill="none" xmlns="http://www.w3.org/2000/svg">
<g clip-path="url(#clip0_170_3)">
<path d="M37.1328 13.9712C37.1328 14.0928 37.1712 14.1632 37.2416 14.1632C37.2992 14.1568 37.3504 14.1312 37.3952 14.0992L57.344 1.15201C57.6811 0.916411 58.0849 0.795265 58.496 0.806415H62.88C63.552 0.806415 64.0064 1.25441 64.0064 1.92641V10.2976C64.0064 11.3088 63.7824 11.8976 62.8864 12.4352L57.568 15.6352C57.515 15.672 57.4531 15.6941 57.3888 15.6992C57.3248 15.6992 57.2608 15.648 57.2608 15.4624V5.69601C57.2608 5.58081 57.2288 5.50401 57.152 5.50401C57.0958 5.51048 57.0426 5.53266 56.9984 5.56801L42.4192 15.04C42.0864 15.264 41.696 15.3856 41.2992 15.3792H31.6352C30.9568 15.3792 30.5088 14.9312 30.5088 14.2528V2.18881C30.5088 2.09921 30.4704 2.01601 30.3936 2.01601C30.3376 2.02313 30.2845 2.04524 30.24 2.08001L20.6208 7.85281C20.5248 7.91681 20.4992 7.96161 20.4992 8.00641C20.4992 8.04481 20.5184 8.08321 20.5824 8.15361L27.456 15.0208C27.5456 15.1104 27.6096 15.1808 27.6096 15.2576C27.6096 15.3216 27.5072 15.3728 27.3856 15.3728H21.1776C20.6912 15.3728 20.3136 15.3024 20.0512 15.04L15.8848 10.88C15.869 10.8611 15.8495 10.8457 15.8275 10.8347C15.8054 10.8237 15.7814 10.8173 15.7568 10.816C15.7116 10.8181 15.6677 10.8313 15.6288 10.8544L8.6656 15.04C8.2432 15.296 7.9552 15.3664 7.5392 15.3664H1.1328C0.448 15.3728 0 14.9184 0 14.2464V6.03521C0 5.01761 0.224 4.43521 1.1264 3.89761L6.4768 0.684815C6.51877 0.657326 6.56746 0.641834 6.6176 0.640015C6.7008 0.640015 6.7456 0.723215 6.7456 0.908815V11.904C6.7456 12.0192 6.7712 12.0704 6.8544 12.0704C6.912 12.064 6.9632 12.0384 7.0144 12.0064L25.088 1.13281C25.4336 0.896015 25.856 0.780815 26.2784 0.800015H36.0064C36.6784 0.800015 37.1328 1.24801 37.1328 1.92001L37.1264 13.9712H37.1328Z" fill="#131E29"/>
</g>
<defs>
<clipPath id="clip0_170_3">
<rect width="64" height="16" fill="white"/>
</clipPath>
</defs>
</svg>
