<svg width="100" height="100" viewBox="0 0 100 100" fill="none" xmlns="http://www.w3.org/2000/svg">
<g clip-path="url(#clip0_63_383)">
<path d="M50 95.4C25.1 95.4 4.7 74.9 4.7 50C4.7 44.4 5.7 39.1 7.6 34.1L34.1 87.4C34.4 88.1 34.9 88.7 35.7 88.7C36.5 88.7 37 88.1 37.3 87.4L49.5 60.1C49.6 59.8 49.8 59.5 50.1 59.5C50.4 59.5 50.5 59.8 50.7 60.1L62.9 87.4C63.2 88.1 63.7 88.7 64.5 88.7C65.3 88.7 65.8 88.1 66.1 87.4L92.6 34.1C94.5 39.1 95.5 44.4 95.5 50C95.3 74.9 74.9 95.4 50 95.4ZM50 39.7C49.7 39.7 49.6 39.4 49.4 39.1L35.2 7.1C39.8 5.4 44.8 4.5 50 4.5C55.2 4.5 60.2 5.4 64.8 7.1L50.6 39.1C50.4 39.5 50.3 39.7 50 39.7ZM35.5 72.6C35.2 72.6 35.1 72.3 34.9 72L11.9 25.6C16 19.3 21.5 14 28.2 10.3L44.8 47.2C45 47.8 45.5 48 46 48H54C54.6 48 55 47.9 55.3 47.2L71.9 10.3C78.5 14 84.1 19.3 88.2 25.6L65 72C64.9 72.3 64.7 72.6 64.4 72.6C64.1 72.6 64 72.3 63.8 72L55.1 52.2C54.8 51.5 54.4 51.4 53.8 51.4H45.8C45.2 51.4 44.8 51.5 44.5 52.2L36.1 72C36 72.3 35.8 72.6 35.5 72.6ZM50 100C77.7 100 100 77.7 100 50C100 22.3 77.7 0 50 0C22.3 0 0 22.3 0 50C0 77.7 22.3 100 50 100Z" fill="white"/>
</g>
<defs>
<clipPath id="clip0_63_383">
<rect width="100" height="100" fill="white"/>
</clipPath>
</defs>
</svg>
