
<svg version="1.1" id="Слой_1" xmlns="http://www.w3.org/2000/svg" xmlns:xlink="http://www.w3.org/1999/xlink" width="23" height="23"
	 viewBox="0 0 22 23" style="enable-background:new 0 0 22 23;" xml:space="preserve">
<style type="text/css">
	.st0{display:none;fill:#B8B8B8;}
	.st1{fill:#B8B8B8;}
</style>
<path class="st0" d="M8.5,14.5l-0.4,5.1c0.5,0,0.7-0.2,1-0.5l2.4-2.3l5,3.7c0.9,0.5,1.6,0.2,1.8-0.8l3.3-15.4l0,0
	c0.3-1.4-0.5-1.9-1.4-1.6L1,10c-1.3,0.5-1.3,1.2-0.2,1.6l4.9,1.5L17.2,6c0.5-0.4,1-0.2,0.6,0.2L8.5,14.5z"/>
<path class="st1" d="M21.2,4.9c-0.3,0-0.6,0.3-0.6,0.6v4.3c-1.8-3.5-5.4-6-9.6-6s-7.9,2.4-9.6,6V5.4c0-0.3-0.2-0.6-0.6-0.6
	c-0.3,0-0.6,0.3-0.6,0.6l0.1,10.1c2.4,2.2,6.3,3.6,10.7,3.6c4.4,0,8.2-1.4,10.6-3.5c0,0,0.1-10.1,0.1-10.1
	C21.7,5.2,21.5,4.9,21.2,4.9z M16.6,15.5H5.5c-1.5,0-2.7-1.2-2.7-2.7c0-1.5,1.2-2.7,2.7-2.7h11.1c1.5,0,2.7,1.2,2.7,2.7
	C19.3,14.2,18.1,15.5,16.6,15.5z"/>
<circle class="st1" cx="6.2" cy="12.6" r="1"/>
<circle class="st1" cx="15.9" cy="12.6" r="1"/>
</svg>