<svg width="98" height="16" viewBox="0 0 98 16" fill="none" xmlns="http://www.w3.org/2000/svg">
<g clip-path="url(#clip0_170_6)">
<path fill-rule="evenodd" clip-rule="evenodd" d="M9.2746 8.28822C9.2746 8.16686 9.27889 7.92851 9.27889 7.92851C5.69784 7.36647 3.1099 5.82427 3.03836 4.01112C2.1567 5.11079 1.65645 6.37006 1.65645 7.71187C1.65645 11.6602 5.99059 14.8954 11.4995 15.1837C10.2233 14.3793 9.2746 11.5956 9.2746 8.28822ZM0.000488281 7.99995C0.000488281 3.58202 5.49833 0 12.2808 0C19.063 0 24.561 3.58202 24.561 7.99995C24.561 12.4179 19.0629 16 12.2808 16C5.49833 16 0.000488281 12.4178 0.000488281 7.99995ZM15.1171 5.90977C17.665 5.51118 19.4485 4.59652 19.4485 3.53219C19.4485 2.10366 16.239 0.946965 12.2808 0.946965C8.32219 0.946965 5.11302 2.10376 5.11302 3.53219C5.11302 4.59652 6.8962 5.51118 9.44443 5.90977C9.85777 3.14075 10.9717 1.15456 12.2808 1.15456C13.5901 1.15456 14.7037 3.14065 15.1171 5.90977ZM13.062 15.1836C18.5707 14.8954 22.9054 11.6601 22.9054 7.71177C22.9054 6.37006 22.4046 5.11079 21.523 4.01102C21.4513 5.82417 18.8641 7.36637 15.2826 7.92842C15.2826 7.92842 15.2871 8.16677 15.2871 8.28813C15.2871 11.5955 14.3377 14.3792 13.062 15.1836ZM13.9828 6.04514C13.7108 4.26912 13.0514 3.01539 12.2808 3.01539C11.5101 3.01539 10.8508 4.26912 10.5785 6.04514C11.7287 6.1396 12.8621 6.14112 13.9828 6.04514ZM10.4458 8.07309C10.4908 10.6449 11.2947 12.6963 12.2808 12.6963C13.2665 12.6963 14.0705 10.645 14.1161 8.07309C12.8562 8.18255 11.6263 8.18247 10.4458 8.07309Z" fill="black"/>
<path fill-rule="evenodd" clip-rule="evenodd" d="M55.4362 13.8368H58.0488V9.45883L62.5432 2.30735H59.5352L56.7426 7.15341L53.9503 2.30735H50.9414L55.4362 9.45883V13.8368ZM38.5932 8.00004C38.5932 4.62328 41.3312 1.88574 44.7083 1.88574C48.0853 1.88574 50.8229 4.62318 50.8229 8.00004C50.8229 11.3772 48.0853 14.1143 44.7083 14.1143C41.3312 14.1143 38.5932 11.3772 38.5932 8.00004ZM44.7083 11.8723C46.5934 11.8723 48.1223 10.1384 48.1223 8.00004C48.1223 5.86173 46.5935 4.1277 44.7083 4.1277C42.823 4.1277 41.2941 5.86173 41.2941 8.00004C41.2941 10.1383 42.823 11.8723 44.7083 11.8723ZM34.3405 13.8368H31.7642V4.4333H28.1699V2.30735H37.9344V4.4333H34.3405V13.8368ZM88.5395 11.2427L87.5488 13.8368H84.5403L89.2968 2.30726H92.5029L97.2599 13.8368H94.2508L93.2601 11.2427L88.5395 11.2427ZM90.9115 5.07742H90.8889L89.2788 9.29704H92.5208L90.9115 5.07742ZM81.8292 13.8368H79.2532V4.4333H75.6589V2.30735H85.4229V4.4333H81.8292V13.8368ZM62.6623 8.00004C62.6623 4.62328 65.4003 1.88574 68.7763 1.88574C72.154 1.88574 74.8917 4.62318 74.8917 8.00004C74.8917 11.3772 72.154 14.1143 68.7763 14.1143C65.4003 14.1143 62.6623 11.3772 62.6623 8.00004ZM68.7763 11.8723C70.6623 11.8723 72.1911 10.1384 72.1911 8.00004C72.1911 5.86173 70.6623 4.1277 68.7763 4.1277C66.8916 4.1277 65.3631 5.86173 65.3631 8.00004C65.3631 10.1383 66.8916 11.8723 68.7763 11.8723Z" fill="black"/>
</g>
<defs>
<clipPath id="clip0_170_6">
<rect width="97.2597" height="16" fill="white"/>
</clipPath>
</defs>
</svg>
