<svg width="28" height="28" viewBox="0 0 28 28" fill="none" xmlns="http://www.w3.org/2000/svg">
<path d="M23.0293 14.7514C22.59 14.1966 22.7157 13.9497 23.0293 13.4538C23.035 13.4481 26.6617 8.43661 27.0353 6.73705L27.0376 6.73592C27.2233 6.11656 27.0376 5.66138 26.1397 5.66138H23.1686C22.4122 5.66138 22.0635 6.05202 21.8766 6.48908C21.8766 6.48908 20.3639 10.1101 18.2239 12.4574C17.5332 13.1356 17.2139 13.353 16.8368 13.353C16.6511 13.353 16.3624 13.1356 16.3624 12.5162V6.73592C16.3624 5.99314 16.1507 5.66138 15.5245 5.66138H10.8527C10.3783 5.66138 10.0963 6.00786 10.0963 6.33056C10.0963 7.03484 11.1663 7.19676 11.2773 9.17826V13.4776C11.2773 14.4196 11.1063 14.5929 10.727 14.5929C9.71701 14.5929 7.26561 10.9571 5.81288 6.79593C5.51962 5.98861 5.23315 5.66251 4.47112 5.66251H1.49887C0.650788 5.66251 0.479813 6.05315 0.479813 6.49021C0.479813 7.26243 1.48981 11.102 5.17654 16.1747C7.6336 19.6372 11.0939 21.5134 14.2416 21.5134C16.1337 21.5134 16.3647 21.0967 16.3647 20.38C16.3647 17.0714 16.1937 16.7589 17.1414 16.7589C17.5807 16.7589 18.3371 16.9763 20.1035 18.6464C22.1223 20.6268 22.4541 21.5134 23.5841 21.5134H26.5553C27.4022 21.5134 27.8313 21.0967 27.5845 20.2747C27.0195 18.5457 23.2014 14.9892 23.0293 14.7514Z" fill="#B8B8B8"/>
<defs>
<rect width="27.1749" height="27.1749" fill="white" transform="translate(0.479828)"/>
</defs>
</svg>
